<mxfile host="app.diagrams.net" agent="Mozilla/5.0 (Windows NT 10.0; Win64; x64) AppleWebKit/537.36 (KHTML, like Gecko) Chrome/132.0.0.0 Safari/537.36" version="26.0.7">
  <diagram name="第1頁" id="bie6L-96c_CMgnQcDrty">
    <mxGraphModel dx="2048" dy="632" grid="1" gridSize="10" guides="1" tooltips="1" connect="1" arrows="1" fold="1" page="1" pageScale="1" pageWidth="827" pageHeight="1169" math="0" shadow="0">
      <root>
        <mxCell id="0" />
        <mxCell id="1" parent="0" />
        <mxCell id="fYwi1ue1L-R9f55LKfn9-1" value="PyQt5" style="rounded=0;whiteSpace=wrap;html=1;" vertex="1" parent="1">
          <mxGeometry x="60" y="40" width="120" height="60" as="geometry" />
        </mxCell>
        <mxCell id="fYwi1ue1L-R9f55LKfn9-2" value="Binance.py" style="rounded=0;whiteSpace=wrap;html=1;" vertex="1" parent="1">
          <mxGeometry x="260" y="40" width="120" height="60" as="geometry" />
        </mxCell>
        <mxCell id="fYwi1ue1L-R9f55LKfn9-3" value="model.py" style="rounded=0;whiteSpace=wrap;html=1;" vertex="1" parent="1">
          <mxGeometry x="460" y="40" width="120" height="60" as="geometry" />
        </mxCell>
        <mxCell id="fYwi1ue1L-R9f55LKfn9-4" value="" style="endArrow=none;dashed=1;html=1;rounded=0;entryX=0.5;entryY=1;entryDx=0;entryDy=0;" edge="1" parent="1" source="fYwi1ue1L-R9f55LKfn9-7" target="fYwi1ue1L-R9f55LKfn9-1">
          <mxGeometry width="50" height="50" relative="1" as="geometry">
            <mxPoint x="120" y="430" as="sourcePoint" />
            <mxPoint x="440" y="300" as="targetPoint" />
          </mxGeometry>
        </mxCell>
        <mxCell id="fYwi1ue1L-R9f55LKfn9-5" value="" style="endArrow=none;dashed=1;html=1;rounded=0;" edge="1" parent="1" source="fYwi1ue1L-R9f55LKfn9-9" target="fYwi1ue1L-R9f55LKfn9-2">
          <mxGeometry width="50" height="50" relative="1" as="geometry">
            <mxPoint x="350" y="430" as="sourcePoint" />
            <mxPoint x="359.5" y="120" as="targetPoint" />
            <Array as="points" />
          </mxGeometry>
        </mxCell>
        <mxCell id="fYwi1ue1L-R9f55LKfn9-8" value="" style="endArrow=none;dashed=1;html=1;rounded=0;entryX=0.5;entryY=1;entryDx=0;entryDy=0;" edge="1" parent="1" source="fYwi1ue1L-R9f55LKfn9-33" target="fYwi1ue1L-R9f55LKfn9-7">
          <mxGeometry width="50" height="50" relative="1" as="geometry">
            <mxPoint x="120" y="430" as="sourcePoint" />
            <mxPoint x="120" y="120" as="targetPoint" />
          </mxGeometry>
        </mxCell>
        <mxCell id="fYwi1ue1L-R9f55LKfn9-7" value="" style="rounded=0;whiteSpace=wrap;html=1;" vertex="1" parent="1">
          <mxGeometry x="100" y="160" width="40" height="60" as="geometry" />
        </mxCell>
        <mxCell id="fYwi1ue1L-R9f55LKfn9-12" value="" style="endArrow=classic;html=1;rounded=0;exitX=1;exitY=0.5;exitDx=0;exitDy=0;entryX=0;entryY=0.5;entryDx=0;entryDy=0;" edge="1" parent="1" source="fYwi1ue1L-R9f55LKfn9-7" target="fYwi1ue1L-R9f55LKfn9-9">
          <mxGeometry width="50" height="50" relative="1" as="geometry">
            <mxPoint x="390" y="350" as="sourcePoint" />
            <mxPoint x="440" y="300" as="targetPoint" />
          </mxGeometry>
        </mxCell>
        <mxCell id="fYwi1ue1L-R9f55LKfn9-13" value="" style="endArrow=classic;html=1;rounded=0;exitX=1;exitY=0.5;exitDx=0;exitDy=0;entryX=0;entryY=0.5;entryDx=0;entryDy=0;" edge="1" parent="1">
          <mxGeometry width="50" height="50" relative="1" as="geometry">
            <mxPoint x="340" y="175" as="sourcePoint" />
            <mxPoint x="705" y="175" as="targetPoint" />
          </mxGeometry>
        </mxCell>
        <mxCell id="fYwi1ue1L-R9f55LKfn9-14" value="" style="endArrow=none;dashed=1;html=1;rounded=0;" edge="1" parent="1" source="fYwi1ue1L-R9f55LKfn9-68" target="fYwi1ue1L-R9f55LKfn9-3">
          <mxGeometry width="50" height="50" relative="1" as="geometry">
            <mxPoint x="520" y="430" as="sourcePoint" />
            <mxPoint x="550" y="210" as="targetPoint" />
          </mxGeometry>
        </mxCell>
        <mxCell id="fYwi1ue1L-R9f55LKfn9-15" value="getCrypto.py" style="rounded=0;whiteSpace=wrap;html=1;" vertex="1" parent="1">
          <mxGeometry x="660" y="40" width="120" height="60" as="geometry" />
        </mxCell>
        <mxCell id="fYwi1ue1L-R9f55LKfn9-16" value="" style="endArrow=none;dashed=1;html=1;rounded=0;entryX=0.5;entryY=1;entryDx=0;entryDy=0;" edge="1" parent="1" source="fYwi1ue1L-R9f55LKfn9-17" target="fYwi1ue1L-R9f55LKfn9-15">
          <mxGeometry width="50" height="50" relative="1" as="geometry">
            <mxPoint x="740" y="430" as="sourcePoint" />
            <mxPoint x="440" y="300" as="targetPoint" />
          </mxGeometry>
        </mxCell>
        <mxCell id="fYwi1ue1L-R9f55LKfn9-21" value="" style="endArrow=none;dashed=1;html=1;rounded=0;" edge="1" parent="1" source="fYwi1ue1L-R9f55LKfn9-20" target="fYwi1ue1L-R9f55LKfn9-9">
          <mxGeometry width="50" height="50" relative="1" as="geometry">
            <mxPoint x="320" y="640" as="sourcePoint" />
            <mxPoint x="350" y="120" as="targetPoint" />
            <Array as="points" />
          </mxGeometry>
        </mxCell>
        <mxCell id="fYwi1ue1L-R9f55LKfn9-9" value="" style="rounded=0;whiteSpace=wrap;html=1;" vertex="1" parent="1">
          <mxGeometry x="300" y="160" width="40" height="60" as="geometry" />
        </mxCell>
        <mxCell id="fYwi1ue1L-R9f55LKfn9-22" value="" style="endArrow=none;dashed=1;html=1;rounded=0;entryX=0.5;entryY=1;entryDx=0;entryDy=0;" edge="1" parent="1" source="fYwi1ue1L-R9f55LKfn9-26" target="fYwi1ue1L-R9f55LKfn9-17">
          <mxGeometry width="50" height="50" relative="1" as="geometry">
            <mxPoint x="720" y="440" as="sourcePoint" />
            <mxPoint x="740" y="110" as="targetPoint" />
          </mxGeometry>
        </mxCell>
        <mxCell id="fYwi1ue1L-R9f55LKfn9-17" value="" style="rounded=0;whiteSpace=wrap;html=1;" vertex="1" parent="1">
          <mxGeometry x="705" y="160" width="30" height="60" as="geometry" />
        </mxCell>
        <mxCell id="fYwi1ue1L-R9f55LKfn9-24" value="" style="endArrow=none;dashed=1;html=1;rounded=0;" edge="1" parent="1" source="fYwi1ue1L-R9f55LKfn9-19" target="fYwi1ue1L-R9f55LKfn9-20">
          <mxGeometry width="50" height="50" relative="1" as="geometry">
            <mxPoint x="320" y="640" as="sourcePoint" />
            <mxPoint x="320" y="220" as="targetPoint" />
            <Array as="points" />
          </mxGeometry>
        </mxCell>
        <mxCell id="fYwi1ue1L-R9f55LKfn9-20" value="" style="rounded=0;whiteSpace=wrap;html=1;" vertex="1" parent="1">
          <mxGeometry x="300" y="250" width="40" height="70" as="geometry" />
        </mxCell>
        <mxCell id="fYwi1ue1L-R9f55LKfn9-18" value="" style="rounded=0;whiteSpace=wrap;html=1;" vertex="1" parent="1">
          <mxGeometry x="300" y="340" width="40" height="80" as="geometry" />
        </mxCell>
        <mxCell id="fYwi1ue1L-R9f55LKfn9-25" value="" style="endArrow=none;dashed=1;html=1;rounded=0;" edge="1" parent="1" target="fYwi1ue1L-R9f55LKfn9-19">
          <mxGeometry width="50" height="50" relative="1" as="geometry">
            <mxPoint x="320" y="640" as="sourcePoint" />
            <mxPoint x="320" y="320" as="targetPoint" />
            <Array as="points" />
          </mxGeometry>
        </mxCell>
        <mxCell id="fYwi1ue1L-R9f55LKfn9-19" value="" style="rounded=0;whiteSpace=wrap;html=1;" vertex="1" parent="1">
          <mxGeometry x="300" y="450" width="40" height="90" as="geometry" />
        </mxCell>
        <mxCell id="fYwi1ue1L-R9f55LKfn9-27" value="" style="endArrow=none;dashed=1;html=1;rounded=0;entryX=0.5;entryY=1;entryDx=0;entryDy=0;" edge="1" parent="1" target="fYwi1ue1L-R9f55LKfn9-26">
          <mxGeometry width="50" height="50" relative="1" as="geometry">
            <mxPoint x="720" y="440" as="sourcePoint" />
            <mxPoint x="720" y="220" as="targetPoint" />
          </mxGeometry>
        </mxCell>
        <mxCell id="fYwi1ue1L-R9f55LKfn9-26" value="" style="rounded=0;whiteSpace=wrap;html=1;" vertex="1" parent="1">
          <mxGeometry x="700" y="315" width="40" height="60" as="geometry" />
        </mxCell>
        <mxCell id="fYwi1ue1L-R9f55LKfn9-28" value="爬蟲程式" style="text;html=1;align=center;verticalAlign=middle;whiteSpace=wrap;rounded=0;" vertex="1" parent="1">
          <mxGeometry x="690" y="10" width="60" height="30" as="geometry" />
        </mxCell>
        <mxCell id="fYwi1ue1L-R9f55LKfn9-29" value="使用者介面:前端" style="text;html=1;align=center;verticalAlign=middle;whiteSpace=wrap;rounded=0;" vertex="1" parent="1">
          <mxGeometry x="70" y="10" width="100" height="30" as="geometry" />
        </mxCell>
        <mxCell id="fYwi1ue1L-R9f55LKfn9-30" value="模組呼叫" style="text;html=1;align=center;verticalAlign=middle;whiteSpace=wrap;rounded=0;" vertex="1" parent="1">
          <mxGeometry x="490" y="10" width="60" height="30" as="geometry" />
        </mxCell>
        <mxCell id="fYwi1ue1L-R9f55LKfn9-31" value="主運算程式" style="text;html=1;align=center;verticalAlign=middle;whiteSpace=wrap;rounded=0;" vertex="1" parent="1">
          <mxGeometry x="275" y="10" width="90" height="30" as="geometry" />
        </mxCell>
        <mxCell id="fYwi1ue1L-R9f55LKfn9-32" value="選擇時間間隔與MA週期，按下&quot;載入數據&quot;" style="text;html=1;align=center;verticalAlign=middle;whiteSpace=wrap;rounded=0;" vertex="1" parent="1">
          <mxGeometry x="-40" y="170" width="140" height="30" as="geometry" />
        </mxCell>
        <mxCell id="fYwi1ue1L-R9f55LKfn9-34" value="" style="endArrow=none;dashed=1;html=1;rounded=0;entryX=0.5;entryY=1;entryDx=0;entryDy=0;" edge="1" parent="1" source="fYwi1ue1L-R9f55LKfn9-36" target="fYwi1ue1L-R9f55LKfn9-33">
          <mxGeometry width="50" height="50" relative="1" as="geometry">
            <mxPoint x="120" y="430" as="sourcePoint" />
            <mxPoint x="120" y="220" as="targetPoint" />
          </mxGeometry>
        </mxCell>
        <mxCell id="fYwi1ue1L-R9f55LKfn9-33" value="" style="rounded=0;whiteSpace=wrap;html=1;" vertex="1" parent="1">
          <mxGeometry x="100" y="230" width="40" height="60" as="geometry" />
        </mxCell>
        <mxCell id="fYwi1ue1L-R9f55LKfn9-35" value="選擇&quot;副指標&quot;" style="text;html=1;align=center;verticalAlign=middle;whiteSpace=wrap;rounded=0;" vertex="1" parent="1">
          <mxGeometry x="5" y="250" width="90" height="30" as="geometry" />
        </mxCell>
        <mxCell id="fYwi1ue1L-R9f55LKfn9-37" value="" style="endArrow=none;dashed=1;html=1;rounded=0;entryX=0.5;entryY=1;entryDx=0;entryDy=0;" edge="1" parent="1" source="fYwi1ue1L-R9f55LKfn9-39" target="fYwi1ue1L-R9f55LKfn9-36">
          <mxGeometry width="50" height="50" relative="1" as="geometry">
            <mxPoint x="120" y="430" as="sourcePoint" />
            <mxPoint x="120" y="290" as="targetPoint" />
          </mxGeometry>
        </mxCell>
        <mxCell id="fYwi1ue1L-R9f55LKfn9-36" value="" style="rounded=0;whiteSpace=wrap;html=1;" vertex="1" parent="1">
          <mxGeometry x="100" y="300" width="40" height="60" as="geometry" />
        </mxCell>
        <mxCell id="fYwi1ue1L-R9f55LKfn9-38" value="選擇&quot;MACD&quot;" style="text;html=1;align=center;verticalAlign=middle;whiteSpace=wrap;rounded=0;" vertex="1" parent="1">
          <mxGeometry x="10" y="315" width="80" height="30" as="geometry" />
        </mxCell>
        <mxCell id="fYwi1ue1L-R9f55LKfn9-40" value="選擇&quot;Stoch&quot;" style="text;html=1;align=center;verticalAlign=middle;whiteSpace=wrap;rounded=0;" vertex="1" parent="1">
          <mxGeometry x="10" y="380" width="80" height="30" as="geometry" />
        </mxCell>
        <mxCell id="fYwi1ue1L-R9f55LKfn9-41" value="" style="endArrow=none;dashed=1;html=1;rounded=0;entryX=0.5;entryY=1;entryDx=0;entryDy=0;" edge="1" parent="1" source="fYwi1ue1L-R9f55LKfn9-46" target="fYwi1ue1L-R9f55LKfn9-39">
          <mxGeometry width="50" height="50" relative="1" as="geometry">
            <mxPoint x="120" y="610" as="sourcePoint" />
            <mxPoint x="120" y="360" as="targetPoint" />
          </mxGeometry>
        </mxCell>
        <mxCell id="fYwi1ue1L-R9f55LKfn9-39" value="" style="rounded=0;whiteSpace=wrap;html=1;" vertex="1" parent="1">
          <mxGeometry x="100" y="380" width="40" height="60" as="geometry" />
        </mxCell>
        <mxCell id="fYwi1ue1L-R9f55LKfn9-43" value="" style="rounded=0;whiteSpace=wrap;html=1;" vertex="1" parent="1">
          <mxGeometry x="100" y="450" width="40" height="60" as="geometry" />
        </mxCell>
        <mxCell id="fYwi1ue1L-R9f55LKfn9-44" value="選擇&quot;交易資料&quot;" style="text;html=1;align=center;verticalAlign=middle;whiteSpace=wrap;rounded=0;" vertex="1" parent="1">
          <mxGeometry y="465" width="100" height="30" as="geometry" />
        </mxCell>
        <mxCell id="fYwi1ue1L-R9f55LKfn9-47" value="" style="endArrow=none;dashed=1;html=1;rounded=0;entryX=0.5;entryY=1;entryDx=0;entryDy=0;" edge="1" parent="1" target="fYwi1ue1L-R9f55LKfn9-46">
          <mxGeometry width="50" height="50" relative="1" as="geometry">
            <mxPoint x="120" y="610" as="sourcePoint" />
            <mxPoint x="120" y="440" as="targetPoint" />
          </mxGeometry>
        </mxCell>
        <mxCell id="fYwi1ue1L-R9f55LKfn9-46" value="" style="rounded=0;whiteSpace=wrap;html=1;" vertex="1" parent="1">
          <mxGeometry x="100" y="530" width="40" height="60" as="geometry" />
        </mxCell>
        <mxCell id="fYwi1ue1L-R9f55LKfn9-48" value="顯示結果" style="text;html=1;align=center;verticalAlign=middle;whiteSpace=wrap;rounded=0;" vertex="1" parent="1">
          <mxGeometry x="20" y="530" width="60" height="30" as="geometry" />
        </mxCell>
        <mxCell id="fYwi1ue1L-R9f55LKfn9-49" value="讀取資料" style="text;html=1;align=center;verticalAlign=middle;whiteSpace=wrap;rounded=0;" vertex="1" parent="1">
          <mxGeometry x="240" y="160" width="60" height="30" as="geometry" />
        </mxCell>
        <mxCell id="fYwi1ue1L-R9f55LKfn9-50" value="用Binance爬蟲後，Pandas存取成DataFrame，回傳值" style="text;html=1;align=center;verticalAlign=middle;whiteSpace=wrap;rounded=0;" vertex="1" parent="1">
          <mxGeometry x="750" y="175" width="160" height="30" as="geometry" />
        </mxCell>
        <mxCell id="fYwi1ue1L-R9f55LKfn9-51" value="" style="endArrow=classic;html=1;rounded=0;exitX=0;exitY=0.75;exitDx=0;exitDy=0;entryX=1;entryY=0.75;entryDx=0;entryDy=0;" edge="1" parent="1" source="fYwi1ue1L-R9f55LKfn9-17" target="fYwi1ue1L-R9f55LKfn9-9">
          <mxGeometry width="50" height="50" relative="1" as="geometry">
            <mxPoint x="390" y="350" as="sourcePoint" />
            <mxPoint x="440" y="300" as="targetPoint" />
          </mxGeometry>
        </mxCell>
        <mxCell id="fYwi1ue1L-R9f55LKfn9-52" value="Talib運算各種類資料" style="text;html=1;align=center;verticalAlign=middle;whiteSpace=wrap;rounded=0;" vertex="1" parent="1">
          <mxGeometry x="540" y="205" width="130" height="30" as="geometry" />
        </mxCell>
        <mxCell id="fYwi1ue1L-R9f55LKfn9-53" value="" style="endArrow=classic;html=1;rounded=0;exitX=1;exitY=0.5;exitDx=0;exitDy=0;entryX=0;entryY=0.75;entryDx=0;entryDy=0;edgeStyle=orthogonalEdgeStyle;" edge="1" parent="1" source="fYwi1ue1L-R9f55LKfn9-33" target="fYwi1ue1L-R9f55LKfn9-9">
          <mxGeometry width="50" height="50" relative="1" as="geometry">
            <mxPoint x="390" y="350" as="sourcePoint" />
            <mxPoint x="440" y="300" as="targetPoint" />
          </mxGeometry>
        </mxCell>
        <mxCell id="fYwi1ue1L-R9f55LKfn9-54" value="" style="endArrow=classic;html=1;rounded=0;exitX=1;exitY=0.5;exitDx=0;exitDy=0;entryX=0;entryY=1;entryDx=0;entryDy=0;edgeStyle=orthogonalEdgeStyle;" edge="1" parent="1" source="fYwi1ue1L-R9f55LKfn9-36" target="fYwi1ue1L-R9f55LKfn9-9">
          <mxGeometry width="50" height="50" relative="1" as="geometry">
            <mxPoint x="390" y="350" as="sourcePoint" />
            <mxPoint x="440" y="300" as="targetPoint" />
            <Array as="points">
              <mxPoint x="140" y="320" />
              <mxPoint x="240" y="320" />
              <mxPoint x="240" y="220" />
            </Array>
          </mxGeometry>
        </mxCell>
        <mxCell id="fYwi1ue1L-R9f55LKfn9-56" value="" style="endArrow=classic;html=1;rounded=0;exitX=1;exitY=0.622;exitDx=0;exitDy=0;exitPerimeter=0;entryX=0;entryY=1;entryDx=0;entryDy=0;edgeStyle=orthogonalEdgeStyle;" edge="1" parent="1" source="fYwi1ue1L-R9f55LKfn9-43" target="fYwi1ue1L-R9f55LKfn9-9">
          <mxGeometry width="50" height="50" relative="1" as="geometry">
            <mxPoint x="390" y="350" as="sourcePoint" />
            <mxPoint x="440" y="300" as="targetPoint" />
            <Array as="points">
              <mxPoint x="240" y="487" />
              <mxPoint x="240" y="220" />
            </Array>
          </mxGeometry>
        </mxCell>
        <mxCell id="fYwi1ue1L-R9f55LKfn9-57" value="" style="endArrow=classic;html=1;rounded=0;exitX=0;exitY=0.5;exitDx=0;exitDy=0;entryX=1;entryY=0.5;entryDx=0;entryDy=0;edgeStyle=orthogonalEdgeStyle;" edge="1" parent="1" source="fYwi1ue1L-R9f55LKfn9-19" target="fYwi1ue1L-R9f55LKfn9-46">
          <mxGeometry width="50" height="50" relative="1" as="geometry">
            <mxPoint x="390" y="350" as="sourcePoint" />
            <mxPoint x="440" y="300" as="targetPoint" />
          </mxGeometry>
        </mxCell>
        <mxCell id="fYwi1ue1L-R9f55LKfn9-58" value="" style="rounded=0;whiteSpace=wrap;html=1;" vertex="1" parent="1">
          <mxGeometry x="500" y="430" width="40" height="60" as="geometry" />
        </mxCell>
        <mxCell id="fYwi1ue1L-R9f55LKfn9-59" value="收到訓練資料後&lt;div&gt;用預測模型計算並回傳結果&lt;/div&gt;" style="text;html=1;align=center;verticalAlign=middle;whiteSpace=wrap;rounded=0;" vertex="1" parent="1">
          <mxGeometry x="510" y="450" width="200" height="30" as="geometry" />
        </mxCell>
        <mxCell id="fYwi1ue1L-R9f55LKfn9-60" value="將功能整合並讀取要使用的功能" style="text;html=1;align=center;verticalAlign=middle;whiteSpace=wrap;rounded=0;" vertex="1" parent="1">
          <mxGeometry x="350" y="235" width="100" height="30" as="geometry" />
        </mxCell>
        <mxCell id="fYwi1ue1L-R9f55LKfn9-62" value="" style="endArrow=classic;html=1;rounded=0;entryX=1;entryY=0.75;entryDx=0;entryDy=0;edgeStyle=orthogonalEdgeStyle;exitX=1;exitY=0.25;exitDx=0;exitDy=0;" edge="1" parent="1" source="fYwi1ue1L-R9f55LKfn9-20" target="fYwi1ue1L-R9f55LKfn9-20">
          <mxGeometry width="50" height="50" relative="1" as="geometry">
            <mxPoint x="435" y="300" as="sourcePoint" />
            <mxPoint x="365" y="332.5" as="targetPoint" />
            <Array as="points">
              <mxPoint x="390" y="268" />
              <mxPoint x="390" y="303" />
            </Array>
          </mxGeometry>
        </mxCell>
        <mxCell id="fYwi1ue1L-R9f55LKfn9-63" value="" style="endArrow=classic;html=1;rounded=0;exitX=1;exitY=0.25;exitDx=0;exitDy=0;entryX=0;entryY=0.25;entryDx=0;entryDy=0;edgeStyle=orthogonalEdgeStyle;" edge="1" parent="1" source="fYwi1ue1L-R9f55LKfn9-19" target="fYwi1ue1L-R9f55LKfn9-58">
          <mxGeometry width="50" height="50" relative="1" as="geometry">
            <mxPoint x="390" y="350" as="sourcePoint" />
            <mxPoint x="440" y="300" as="targetPoint" />
          </mxGeometry>
        </mxCell>
        <mxCell id="fYwi1ue1L-R9f55LKfn9-64" value="" style="endArrow=classic;html=1;rounded=0;exitX=0;exitY=0.75;exitDx=0;exitDy=0;entryX=1;entryY=0.75;entryDx=0;entryDy=0;edgeStyle=orthogonalEdgeStyle;" edge="1" parent="1" source="fYwi1ue1L-R9f55LKfn9-58" target="fYwi1ue1L-R9f55LKfn9-19">
          <mxGeometry width="50" height="50" relative="1" as="geometry">
            <mxPoint x="390" y="350" as="sourcePoint" />
            <mxPoint x="440" y="300" as="targetPoint" />
            <Array as="points">
              <mxPoint x="450" y="475" />
              <mxPoint x="450" y="518" />
            </Array>
          </mxGeometry>
        </mxCell>
        <mxCell id="fYwi1ue1L-R9f55LKfn9-67" value="" style="endArrow=none;html=1;rounded=0;exitX=1;exitY=0.5;exitDx=0;exitDy=0;" edge="1" parent="1" source="fYwi1ue1L-R9f55LKfn9-39">
          <mxGeometry width="50" height="50" relative="1" as="geometry">
            <mxPoint x="390" y="350" as="sourcePoint" />
            <mxPoint x="240" y="410" as="targetPoint" />
          </mxGeometry>
        </mxCell>
        <mxCell id="fYwi1ue1L-R9f55LKfn9-69" value="" style="endArrow=none;dashed=1;html=1;rounded=0;" edge="1" parent="1" target="fYwi1ue1L-R9f55LKfn9-68">
          <mxGeometry width="50" height="50" relative="1" as="geometry">
            <mxPoint x="520" y="430" as="sourcePoint" />
            <mxPoint x="520" y="100" as="targetPoint" />
          </mxGeometry>
        </mxCell>
        <mxCell id="fYwi1ue1L-R9f55LKfn9-68" value="" style="rounded=0;whiteSpace=wrap;html=1;" vertex="1" parent="1">
          <mxGeometry x="500" y="255" width="40" height="60" as="geometry" />
        </mxCell>
        <mxCell id="fYwi1ue1L-R9f55LKfn9-70" value="用Pandas存取訓練資料後回傳" style="text;html=1;align=center;verticalAlign=middle;whiteSpace=wrap;rounded=0;" vertex="1" parent="1">
          <mxGeometry x="827" y="290" width="90" height="30" as="geometry" />
        </mxCell>
        <mxCell id="fYwi1ue1L-R9f55LKfn9-71" value="TrainModel.py" style="rounded=0;whiteSpace=wrap;html=1;" vertex="1" parent="1">
          <mxGeometry x="880" y="40" width="120" height="60" as="geometry" />
        </mxCell>
        <mxCell id="fYwi1ue1L-R9f55LKfn9-72" value="" style="endArrow=none;dashed=1;html=1;dashPattern=1 3;strokeWidth=2;rounded=0;entryX=0.5;entryY=1;entryDx=0;entryDy=0;" edge="1" parent="1" source="fYwi1ue1L-R9f55LKfn9-73" target="fYwi1ue1L-R9f55LKfn9-71">
          <mxGeometry width="50" height="50" relative="1" as="geometry">
            <mxPoint x="940" y="570" as="sourcePoint" />
            <mxPoint x="440" y="300" as="targetPoint" />
          </mxGeometry>
        </mxCell>
        <mxCell id="fYwi1ue1L-R9f55LKfn9-74" value="" style="endArrow=none;dashed=1;html=1;dashPattern=1 3;strokeWidth=2;rounded=0;entryX=0.5;entryY=1;entryDx=0;entryDy=0;" edge="1" parent="1" target="fYwi1ue1L-R9f55LKfn9-73">
          <mxGeometry width="50" height="50" relative="1" as="geometry">
            <mxPoint x="940" y="610" as="sourcePoint" />
            <mxPoint x="940" y="100" as="targetPoint" />
          </mxGeometry>
        </mxCell>
        <mxCell id="fYwi1ue1L-R9f55LKfn9-73" value="" style="rounded=0;whiteSpace=wrap;html=1;" vertex="1" parent="1">
          <mxGeometry x="920" y="240" width="40" height="60" as="geometry" />
        </mxCell>
        <mxCell id="fYwi1ue1L-R9f55LKfn9-75" value="" style="endArrow=classic;html=1;rounded=0;exitX=1;exitY=0.25;exitDx=0;exitDy=0;entryX=0;entryY=0.25;entryDx=0;entryDy=0;edgeStyle=orthogonalEdgeStyle;" edge="1" parent="1" source="fYwi1ue1L-R9f55LKfn9-18" target="fYwi1ue1L-R9f55LKfn9-73">
          <mxGeometry width="50" height="50" relative="1" as="geometry">
            <mxPoint x="390" y="350" as="sourcePoint" />
            <mxPoint x="440" y="300" as="targetPoint" />
          </mxGeometry>
        </mxCell>
        <mxCell id="fYwi1ue1L-R9f55LKfn9-76" value="" style="endArrow=classic;html=1;rounded=0;exitX=0;exitY=0.75;exitDx=0;exitDy=0;entryX=1;entryY=0.75;entryDx=0;entryDy=0;edgeStyle=orthogonalEdgeStyle;" edge="1" parent="1" source="fYwi1ue1L-R9f55LKfn9-73" target="fYwi1ue1L-R9f55LKfn9-18">
          <mxGeometry width="50" height="50" relative="1" as="geometry">
            <mxPoint x="390" y="350" as="sourcePoint" />
            <mxPoint x="440" y="300" as="targetPoint" />
            <Array as="points">
              <mxPoint x="680" y="285" />
              <mxPoint x="680" y="400" />
            </Array>
          </mxGeometry>
        </mxCell>
        <mxCell id="fYwi1ue1L-R9f55LKfn9-77" value="讀取訓練集/驗證集" style="text;html=1;align=center;verticalAlign=middle;whiteSpace=wrap;rounded=0;" vertex="1" parent="1">
          <mxGeometry x="350" y="365" width="70" height="30" as="geometry" />
        </mxCell>
        <mxCell id="fYwi1ue1L-R9f55LKfn9-78" value="模組訓練" style="text;html=1;align=center;verticalAlign=middle;whiteSpace=wrap;rounded=0;" vertex="1" parent="1">
          <mxGeometry x="390" y="310" width="60" height="30" as="geometry" />
        </mxCell>
        <mxCell id="fYwi1ue1L-R9f55LKfn9-79" value="TurtleBuySell.py" style="rounded=0;whiteSpace=wrap;html=1;" vertex="1" parent="1">
          <mxGeometry x="1050" y="40" width="120" height="60" as="geometry" />
        </mxCell>
        <mxCell id="fYwi1ue1L-R9f55LKfn9-80" value="模組訓練" style="text;html=1;align=center;verticalAlign=middle;whiteSpace=wrap;rounded=0;" vertex="1" parent="1">
          <mxGeometry x="910" y="10" width="60" height="30" as="geometry" />
        </mxCell>
        <mxCell id="fYwi1ue1L-R9f55LKfn9-82" value="海龜策略" style="text;html=1;align=center;verticalAlign=middle;whiteSpace=wrap;rounded=0;" vertex="1" parent="1">
          <mxGeometry x="1080" y="10" width="60" height="30" as="geometry" />
        </mxCell>
        <mxCell id="fYwi1ue1L-R9f55LKfn9-83" value="" style="endArrow=none;dashed=1;html=1;dashPattern=1 3;strokeWidth=2;rounded=0;exitX=0.5;exitY=1;exitDx=0;exitDy=0;" edge="1" parent="1" source="fYwi1ue1L-R9f55LKfn9-84">
          <mxGeometry width="50" height="50" relative="1" as="geometry">
            <mxPoint x="890" y="350" as="sourcePoint" />
            <mxPoint x="1110" y="570" as="targetPoint" />
          </mxGeometry>
        </mxCell>
        <mxCell id="fYwi1ue1L-R9f55LKfn9-85" value="" style="endArrow=none;dashed=1;html=1;dashPattern=1 3;strokeWidth=2;rounded=0;exitX=0.5;exitY=1;exitDx=0;exitDy=0;" edge="1" parent="1" source="fYwi1ue1L-R9f55LKfn9-79" target="fYwi1ue1L-R9f55LKfn9-84">
          <mxGeometry width="50" height="50" relative="1" as="geometry">
            <mxPoint x="1110" y="100" as="sourcePoint" />
            <mxPoint x="1110" y="570" as="targetPoint" />
          </mxGeometry>
        </mxCell>
        <mxCell id="fYwi1ue1L-R9f55LKfn9-84" value="" style="rounded=0;whiteSpace=wrap;html=1;" vertex="1" parent="1">
          <mxGeometry x="1090" y="160" width="35" height="60" as="geometry" />
        </mxCell>
        <mxCell id="fYwi1ue1L-R9f55LKfn9-86" value="選擇時間間隔，&lt;div&gt;&lt;span style=&quot;background-color: transparent; color: light-dark(rgb(0, 0, 0), rgb(255, 255, 255));&quot;&gt;按下&quot;載入數據&quot;&lt;/span&gt;&lt;/div&gt;" style="text;html=1;align=center;verticalAlign=middle;whiteSpace=wrap;rounded=0;" vertex="1" parent="1">
          <mxGeometry x="1120" y="170" width="140" height="30" as="geometry" />
        </mxCell>
        <mxCell id="fYwi1ue1L-R9f55LKfn9-87" value="" style="endArrow=classic;html=1;rounded=0;entryX=0;entryY=0.25;entryDx=0;entryDy=0;exitX=1;exitY=0.25;exitDx=0;exitDy=0;" edge="1" parent="1" source="fYwi1ue1L-R9f55LKfn9-17" target="fYwi1ue1L-R9f55LKfn9-84">
          <mxGeometry width="50" height="50" relative="1" as="geometry">
            <mxPoint x="600" y="350" as="sourcePoint" />
            <mxPoint x="650" y="300" as="targetPoint" />
          </mxGeometry>
        </mxCell>
        <mxCell id="fYwi1ue1L-R9f55LKfn9-88" value="" style="endArrow=classic;html=1;rounded=0;entryX=1;entryY=0.75;entryDx=0;entryDy=0;exitX=0;exitY=0.75;exitDx=0;exitDy=0;" edge="1" parent="1" source="fYwi1ue1L-R9f55LKfn9-84" target="fYwi1ue1L-R9f55LKfn9-17">
          <mxGeometry width="50" height="50" relative="1" as="geometry">
            <mxPoint x="600" y="350" as="sourcePoint" />
            <mxPoint x="650" y="300" as="targetPoint" />
          </mxGeometry>
        </mxCell>
        <mxCell id="fYwi1ue1L-R9f55LKfn9-90" style="edgeStyle=orthogonalEdgeStyle;rounded=0;orthogonalLoop=1;jettySize=auto;html=1;" edge="1" parent="1" source="fYwi1ue1L-R9f55LKfn9-89">
          <mxGeometry relative="1" as="geometry">
            <mxPoint x="1000" y="210" as="targetPoint" />
          </mxGeometry>
        </mxCell>
        <mxCell id="fYwi1ue1L-R9f55LKfn9-89" value="" style="rounded=0;whiteSpace=wrap;html=1;" vertex="1" parent="1">
          <mxGeometry x="1090" y="250" width="40" height="60" as="geometry" />
        </mxCell>
        <mxCell id="fYwi1ue1L-R9f55LKfn9-91" value="計算ADX並且讀取選擇的時間間隔" style="text;html=1;align=center;verticalAlign=middle;whiteSpace=wrap;rounded=0;" vertex="1" parent="1">
          <mxGeometry x="1141" y="255" width="100" height="30" as="geometry" />
        </mxCell>
        <mxCell id="fYwi1ue1L-R9f55LKfn9-92" value="" style="rounded=0;whiteSpace=wrap;html=1;" vertex="1" parent="1">
          <mxGeometry x="1090" y="345" width="40" height="65" as="geometry" />
        </mxCell>
        <mxCell id="fYwi1ue1L-R9f55LKfn9-93" value="收到ADX/時間間隔和買賣計算後回傳結果" style="text;html=1;align=center;verticalAlign=middle;whiteSpace=wrap;rounded=0;" vertex="1" parent="1">
          <mxGeometry x="1140" y="365" width="110" height="30" as="geometry" />
        </mxCell>
        <mxCell id="fYwi1ue1L-R9f55LKfn9-94" value="" style="endArrow=classic;html=1;rounded=0;exitX=0;exitY=0.5;exitDx=0;exitDy=0;entryX=1;entryY=0.75;entryDx=0;entryDy=0;edgeStyle=orthogonalEdgeStyle;" edge="1" parent="1" source="fYwi1ue1L-R9f55LKfn9-92" target="fYwi1ue1L-R9f55LKfn9-46">
          <mxGeometry width="50" height="50" relative="1" as="geometry">
            <mxPoint x="630" y="350" as="sourcePoint" />
            <mxPoint x="680" y="300" as="targetPoint" />
            <Array as="points">
              <mxPoint x="1010" y="378" />
              <mxPoint x="1010" y="570" />
              <mxPoint x="140" y="570" />
            </Array>
          </mxGeometry>
        </mxCell>
      </root>
    </mxGraphModel>
  </diagram>
</mxfile>
